<svg id="Layer_1" xmlns="http://www.w3.org/2000/svg" xmlns:xlink="http://www.w3.org/1999/xlink" width="550" height="110" viewBox="0 0 550 110" style="enable-background:new 0 0 550 110;"><image style="display:none;overflow:visible;" width="550" height="110" xlink:href="6FA1248D.jpg" transform="matrix(1 0 0 1 1.5847 0)"/><g><polygon style="fill:#CCDB2E;" points="17.8,43 1.4,14.6 34.2,14.6"/><polygon style="fill:#6A266C;" points="99.8,71.4 83.4,43 116.3,43"/><polygon style="fill:#91A33B;" points="34.2,71.4 17.8,43 50.6,43"/><polygon style="fill:#0F85B5;" points="50.6,43 34.2,71.4 67,71.4"/><polygon style="fill:#7F287D;" points="83.4,43 67,71.4 99.8,71.4"/><polygon style="fill:#B34526;" points="116.3,43 99.8,71.4 132.7,71.4"/><polygon style="fill:#D01E6E;" points="149.1,43 132.7,71.4 165.5,71.4"/><g><polygon style="fill:#2DABE2;" points="67,71.4 50.6,99.8 83.4,99.8"/><polygon style="fill:#F15B2D;" points="132.7,71.4 116.3,99.8 149.1,99.8"/><polygon style="fill:#0C98D1;" points="50.6,99.8 34.2,71.4 67,71.4"/><polygon style="fill:#912B8C;" points="83.4,99.8 67,71.4 99.8,71.4"/><polygon style="fill:#D24F27;" points="116.3,99.8 99.8,71.4 132.7,71.4"/><polygon style="fill:#ED267C;" points="149.1,99.8 132.7,71.4 165.5,71.4"/></g><polygon style="fill:#ADBE37;" points="47.3,37.2 28.9,37.2 38.1,21.3 34.2,14.6 17.8,43 50.6,43"/><polygon style="fill:#ADBE37;" points="51.3,33.8 34.8,33.8 43.1,19.5"/><polygon style="fill:#ADBE37;" points="64.6,20.9 51.3,20.9 58,9.4"/><polygon style="fill:#ADBE37;" points="66.9,37.2 58.6,37.2 62.8,30"/><polygon style="fill:#AE215C;" points="162.6,49.8 178,49.8 181.9,43 149.1,43 165.5,71.4 170.3,63.1"/><polygon style="fill:#AE215C;" points="175.7,67.2 167.1,52.3 184.3,52.3"/><polygon style="fill:#AE215C;" points="186.5,40.3 181.9,32.3 191.1,32.3"/><polygon style="fill:#AE215C;" points="196.5,52.8 191.4,43.9 201.6,43.9"/></g><g><g><path style="fill:#3B3B3B;" d="M216.1 33h7.1l3.9 19.9L232 33h7.3l4.7 19.9 4-19.9h7.2l-7.1 27.4H240l-4.4-18-4.5 18H223L216.1 33z"/><path style="fill:#3B3B3B;" d="M276.3 38.4h-10.1v5.5h8.9V49h-8.9v6h10.1v5.3h-16.8V33h16.8v5.4z"/><path style="fill:#3B3B3B;" d="M294.4 60.4h-12.8V33h12.3c5.6.0 8.9 2.8 8.9 7.1.0 3.3-2 5.5-4.6 6.2 3.2.7 5.3 3.5 5.3 6.6C303.4 57.5 300.1 60.4 294.4 60.4zM292.6 38.4h-4.4v5.7h4.4c2.2.0 3.4-1 3.4-2.8S294.8 38.4 292.6 38.4zm.5 10.6h-4.8v6h4.9c2.2.0 3.5-1 3.5-3C296.7 50.1 295.3 49 293.1 49z"/><path style="fill:#3B3B3B;" d="M306.8 33H328v5.3h-7.3v22H314v-22h-7.3V33z"/><path style="fill:#3B3B3B;" d="M349.1 38.4H339v5.5h8.9V49H339v6h10.1v5.3h-16.8V33h16.8v5.4z"/><path style="fill:#3B3B3B;" d="M367 32.7c6.5.0 11.4 3.7 13 9.6h-7.3c-1.1-2.3-3.2-3.5-5.7-3.5-4.1.0-6.9 3-6.9 7.9s2.8 7.9 6.9 7.9c2.5.0 4.6-1.2 5.7-3.5h7.3c-1.6 5.9-6.5 9.6-13 9.6-8.1.0-13.8-5.7-13.8-13.9S358.9 32.7 367 32.7z"/><path style="fill:#3B3B3B;" d="M402.1 49.1h-10.4v11.3H385V33h6.7v10.7h10.4V33h6.7v27.4h-6.7V49.1z"/><path style="fill:#3B3B3B;" d="M448.3 33v27.4h-6.7l-11.2-16.9v16.9h-6.7V33h6.7l11.2 17V33H448.3z"/><path style="fill:#3B3B3B;" d="M470.9 38.4h-10.1v5.5h8.9V49h-8.9v6h10.1v5.3h-16.8V33h16.8v5.4z"/><path style="fill:#3B3B3B;" d="M487 50.6h-4.1v9.8h-6.7V33H487c6.7.0 10.1 3.8 10.1 8.8C497 46.4 494 50.6 487 50.6zm-.5-5.3c2.7.0 3.8-1.3 3.8-3.4s-1.1-3.4-3.8-3.4h-3.6v6.9H486.5z"/><path style="fill:#3B3B3B;" d="M518.5 55.6h-10.2l-1.6 4.8h-7l9.9-27.4h7.7l9.9 27.4h-7.1L518.5 55.6zM513.4 40.4l-3.4 10h6.7L513.4 40.4z"/><path style="fill:#3B3B3B;" d="M537.9 33v22.2h8.7v5.1h-15.4V33H537.9z"/></g></g><g><g><path style="fill:#656767;" d="M226.9 83.1c2.8.0 4.7 1.4 5.3 3.8h-2.6c-.4-1.1-1.3-1.8-2.8-1.8-1.9.0-3.2 1.4-3.2 3.9s1.3 4 3.2 4c1.4.0 2.3-.6 2.8-1.8h2.6c-.7 2.3-2.5 3.8-5.3 3.8-3.3.0-5.7-2.4-5.7-6C221.2 85.5 223.6 83.1 226.9 83.1z"/><path style="fill:#656767;" d="M237.3 94.9h-2.4V83.3h2.4V85c.7-1.2 1.8-1.9 3.5-1.9v2.5h-.6c-1.8.0-2.9.7-2.9 3.2V94.9z"/><path style="fill:#656767;" d="M248.2 95.1c-3.3.0-5.8-2.4-5.8-6s2.4-6 5.8-6c3.3.0 5.6 2.3 5.6 5.7.0.4.0.8-.1 1.2h-8.8c.2 1.9 1.5 3.1 3.3 3.1 1.5.0 2.3-.7 2.7-1.6h2.6C252.9 93.5 251 95.1 248.2 95.1zM244.9 88.1h6.4c0-1.8-1.4-2.9-3.2-2.9C246.5 85.2 245.2 86.3 244.9 88.1z"/><path style="fill:#656767;" d="M261.1 83.1c2 0 3.3.9 4 1.9v-1.7h2.4v11.6h-2.4v-1.7c-.7 1-2.1 1.9-4.1 1.9-3 0-5.4-2.5-5.4-6S258.1 83.1 261.1 83.1zM261.6 85.2c-1.8.0-3.5 1.3-3.5 3.8s1.7 3.9 3.5 3.9 3.5-1.4 3.5-3.9C265.1 86.6 263.4 85.2 261.6 85.2z"/><path style="fill:#656767;" d="M271.3 85.3H270v-2h1.4v-2.9h2.4v2.9h2.8v2h-2.8v6.4c0 .9.3 1.2 1.3 1.2h1.5v2h-1.9c-2.1.0-3.3-.9-3.3-3.2V85.3z"/><path style="fill:#656767;" d="M278.7 80.3c0-.9.7-1.5 1.5-1.5s1.5.7 1.5 1.5c0 .9-.7 1.5-1.5 1.5S278.7 81.1 278.7 80.3zM279.1 83.3h2.4v11.6h-2.4V83.3z"/><path style="fill:#656767;" d="M286.1 83.3l3.3 9.4 3.3-9.4h2.5l-4.4 11.6h-2.9l-4.4-11.6H286.1z"/><path style="fill:#656767;" d="M296.9 80.3c0-.9.7-1.5 1.5-1.5s1.5.7 1.5 1.5c0 .9-.7 1.5-1.5 1.5C297.6 81.8 296.9 81.1 296.9 80.3zM297.2 83.3h2.4v11.6h-2.4V83.3z"/><path style="fill:#656767;" d="M303.4 85.3H302v-2h1.4v-2.9h2.4v2.9h2.8v2h-2.8v6.4c0 .9.3 1.2 1.3 1.2h1.5v2h-1.9c-2.1.0-3.3-.9-3.3-3.2V85.3z"/><path style="fill:#656767;" d="M319.1 83.3h2.5l-7.1 17H312l2.4-5.6-4.6-11.4h2.7l3.3 8.8L319.1 83.3z"/><path style="fill:#656767;" d="M335.8 83.1c3.1.0 5.4 2.4 5.4 5.9s-2.4 6-5.4 6c-1.9.0-3.3-.9-4-1.9v1.7h-2.4V79.4h2.4v5.7C332.5 84 334 83.1 335.8 83.1zM335.3 85.2c-1.8.0-3.5 1.4-3.5 3.9s1.7 3.9 3.5 3.9 3.5-1.4 3.5-3.9C338.8 86.6 337.1 85.2 335.3 85.2z"/><path style="fill:#656767;" d="M348.9 95.1c-3.3.0-5.8-2.4-5.8-6s2.4-6 5.8-6c3.3.0 5.6 2.3 5.6 5.7.0.4.0.8-.1 1.2h-8.8c.2 1.9 1.5 3.1 3.3 3.1 1.5.0 2.3-.7 2.7-1.6h2.6C353.5 93.5 351.7 95.1 348.9 95.1zM345.6 88.1h6.4c0-1.8-1.4-2.9-3.2-2.9C347.1 85.2 345.8 86.3 345.6 88.1z"/><path style="fill:#656767;" d="M365 83.3h2.5l-7.1 17h-2.5l2.4-5.6-4.6-11.4h2.7l3.3 8.8L365 83.3z"/><path style="fill:#656767;" d="M374.6 95.1c-3.3.0-5.8-2.4-5.8-6s2.6-6 5.9-6c3.3.0 5.9 2.3 5.9 6C380.6 92.7 377.9 95.1 374.6 95.1zM374.6 93c1.8.0 3.5-1.3 3.5-3.9.0-2.6-1.7-3.9-3.5-3.9s-3.4 1.3-3.4 3.9C371.3 91.7 372.8 93 374.6 93z"/><path style="fill:#656767;" d="M391.5 88.4c0-2.1-1.2-3.2-2.9-3.2-1.8.0-2.9 1.1-2.9 3.2v6.5h-2.4V83.3h2.4v1.3c.8-.9 2.1-1.5 3.4-1.5 2.7.0 4.7 1.7 4.7 4.9v6.8h-2.4V88.4z"/><path style="fill:#656767;" d="M401.9 83.1c1.5.0 3.1.7 4 1.8v-5.6h2.4v15.5h-2.4v-1.7c-.7 1-2.1 1.9-4 1.9-3 0-5.5-2.5-5.5-6S398.8 83.1 401.9 83.1zM402.3 85.2c-1.8.0-3.5 1.3-3.5 3.8s1.7 3.9 3.5 3.9 3.5-1.4 3.5-3.9C405.8 86.6 404.1 85.2 402.3 85.2z"/><path style="fill:#656767;" d="M417.1 80.3c0-.9.7-1.5 1.5-1.5s1.5.7 1.5 1.5c0 .9-.7 1.5-1.5 1.5S417.1 81.1 417.1 80.3zM417.4 83.3h2.4v11.6h-2.4V83.3z"/><path style="fill:#656767;" d="M439.6 88.4c0-2.1-1.2-3.2-2.9-3.2-1.8.0-2.9 1.1-2.9 3.2v6.5h-2.4v-6.5c0-2.1-1.2-3.2-2.9-3.2-1.8.0-2.9 1.1-2.9 3.2v6.5h-2.4V83.3h2.4v1.3c.8-.9 2-1.5 3.4-1.5 1.8.0 3.4.8 4.2 2.3.7-1.4 2.4-2.3 4-2.3 2.7.0 4.8 1.7 4.8 4.9v6.8h-2.4V88.4z"/><path style="fill:#656767;" d="M450 83.1c2 0 3.3.9 4 1.9v-1.7h2.4v11.6H454v-1.7c-.7 1-2.1 1.9-4.1 1.9-3 0-5.4-2.5-5.4-6S446.9 83.1 450 83.1zM450.5 85.2c-1.8.0-3.5 1.3-3.5 3.8s1.7 3.9 3.5 3.9 3.5-1.4 3.5-3.9C454 86.6 452.3 85.2 450.5 85.2z"/><path style="fill:#656767;" d="M464.5 83.1c1.9.0 3.3.9 4 1.9v-1.7h2.4v11.8c0 3.1-2 5.5-5.6 5.5-3.1.0-5.4-1.5-5.7-4.1h2.4c.4 1.2 1.6 2 3.3 2 1.8.0 3.2-1.1 3.2-3.4v-1.9c-.7 1-2.1 1.9-4 1.9-3 0-5.5-2.5-5.5-6S461.5 83.1 464.5 83.1zM465 85.2c-1.8.0-3.5 1.3-3.5 3.8s1.7 3.9 3.5 3.9 3.5-1.4 3.5-3.9C468.5 86.6 466.8 85.2 465 85.2z"/><path style="fill:#656767;" d="M474 80.3c0-.9.7-1.5 1.5-1.5s1.5.7 1.5 1.5c0 .9-.7 1.5-1.5 1.5S474 81.1 474 80.3zM474.4 83.3h2.4v11.6h-2.4V83.3z"/><path style="fill:#656767;" d="M488.4 88.4c0-2.1-1.2-3.2-2.9-3.2-1.8.0-2.9 1.1-2.9 3.2v6.5h-2.4V83.3h2.4v1.3c.8-.9 2.1-1.5 3.4-1.5 2.7.0 4.7 1.7 4.7 4.9v6.8h-2.4V88.4z"/><path style="fill:#656767;" d="M498.7 83.1c2 0 3.3.9 4 1.9v-1.7h2.4v11.6h-2.4v-1.7c-.7 1-2.1 1.9-4.1 1.9-3 0-5.4-2.5-5.4-6s2.5-6 5.5-6zM499.2 85.2c-1.8.0-3.5 1.3-3.5 3.8s1.7 3.9 3.5 3.9 3.5-1.4 3.5-3.9C502.7 86.6 501 85.2 499.2 85.2z"/><path style="fill:#656767;" d="M509 85.3h-1.4v-2h1.4v-2.9h2.4v2.9h2.8v2h-2.8v6.4c0 .9.3 1.2 1.3 1.2h1.5v2h-1.9c-2.1.0-3.3-.9-3.3-3.2V85.3z"/><path style="fill:#656767;" d="M516.4 80.3c0-.9.7-1.5 1.5-1.5s1.5.7 1.5 1.5c0 .9-.7 1.5-1.5 1.5C517 81.8 516.4 81.1 516.4 80.3zM516.7 83.3h2.4v11.6h-2.4V83.3z"/><path style="fill:#656767;" d="M527.5 95.1c-3.3.0-5.8-2.4-5.8-6s2.6-6 5.9-6 5.9 2.3 5.9 6C533.5 92.7 530.8 95.1 527.5 95.1zM527.5 93c1.8.0 3.5-1.3 3.5-3.9.0-2.6-1.7-3.9-3.5-3.9s-3.4 1.3-3.4 3.9S525.7 93 527.5 93z"/><path style="fill:#656767;" d="M544.4 88.4c0-2.1-1.2-3.2-2.9-3.2-1.8.0-2.9 1.1-2.9 3.2v6.5h-2.4V83.3h2.4v1.3c.8-.9 2.1-1.5 3.4-1.5 2.7.0 4.7 1.7 4.7 4.9v6.8h-2.4V88.4z"/></g></g><g style="display:none;"><g style="display:inline;"><polygon style="fill:#CCDB2E;" points="17.8,43 1.4,14.6 34.2,14.6"/><polygon style="fill:#6A266C;" points="99.8,71.4 83.4,43 116.3,43"/><polygon style="fill:#91A33B;" points="34.2,71.4 17.8,43 50.6,43"/><polygon style="fill:#0F85B5;" points="50.6,43 34.2,71.4 67,71.4"/><polygon style="fill:#7F287D;" points="83.4,43 67,71.4 99.8,71.4"/><polygon style="fill:#B34526;" points="116.3,43 99.8,71.4 132.7,71.4"/><polygon style="fill:#D01E6E;" points="149.1,43 132.7,71.4 165.5,71.4"/><g><polygon style="fill:#2DABE2;" points="67,71.4 50.6,99.8 83.4,99.8"/><polygon style="fill:#F15B2D;" points="132.7,71.4 116.3,99.8 149.1,99.8"/><polygon style="fill:#0C98D1;" points="50.6,99.8 34.2,71.4 67,71.4"/><polygon style="fill:#912B8C;" points="83.4,99.8 67,71.4 99.8,71.4"/><polygon style="fill:#D24F27;" points="116.3,99.8 99.8,71.4 132.7,71.4"/><polygon style="fill:#ED267C;" points="149.1,99.8 132.7,71.4 165.5,71.4"/></g><polygon style="fill:#ADBE37;" points="47.3,37.2 28.9,37.2 38.1,21.3 34.2,14.6 17.8,43 50.6,43"/><polygon style="fill:#ADBE37;" points="51.3,33.8 34.8,33.8 43.1,19.5"/><polygon style="fill:#ADBE37;" points="64.6,20.9 51.3,20.9 58,9.4"/><polygon style="fill:#ADBE37;" points="66.9,37.2 58.6,37.2 62.8,30"/><polygon style="fill:#AE215C;" points="162.6,49.8 178,49.8 181.9,43 149.1,43 165.5,71.4 170.3,63.1"/><polygon style="fill:#AE215C;" points="175.7,67.2 167.1,52.3 184.3,52.3"/><polygon style="fill:#AE215C;" points="186.5,40.3 181.9,32.3 191.1,32.3"/><polygon style="fill:#AE215C;" points="196.5,52.8 191.4,43.9 201.6,43.9"/></g><g style="display:inline;"><g><path style="fill:#FFFFFF;" d="M216.1 33h7.1l3.9 19.9L232 33h7.3l4.7 19.9 4-19.9h7.2l-7.1 27.4H240l-4.4-18-4.5 18H223L216.1 33z"/><path style="fill:#FFFFFF;" d="M276.3 38.4h-10.1v5.5h8.9V49h-8.9v6h10.1v5.3h-16.8V33h16.8v5.4z"/><path style="fill:#FFFFFF;" d="M294.4 60.4h-12.8V33h12.3c5.6.0 8.9 2.8 8.9 7.1.0 3.3-2 5.5-4.6 6.2 3.2.7 5.3 3.5 5.3 6.6C303.4 57.5 300.1 60.4 294.4 60.4zM292.6 38.4h-4.4v5.7h4.4c2.2.0 3.4-1 3.4-2.8S294.8 38.4 292.6 38.4zm.5 10.6h-4.8v6h4.9c2.2.0 3.5-1 3.5-3C296.7 50.1 295.3 49 293.1 49z"/><path style="fill:#FFFFFF;" d="M306.8 33H328v5.3h-7.3v22H314v-22h-7.3V33z"/><path style="fill:#FFFFFF;" d="M349.1 38.4H339v5.5h8.9V49H339v6h10.1v5.3h-16.8V33h16.8v5.4z"/><path style="fill:#FFFFFF;" d="M367 32.7c6.5.0 11.4 3.7 13 9.6h-7.3c-1.1-2.3-3.2-3.5-5.7-3.5-4.1.0-6.9 3-6.9 7.9s2.8 7.9 6.9 7.9c2.5.0 4.6-1.2 5.7-3.5h7.3c-1.6 5.9-6.5 9.6-13 9.6-8.1.0-13.8-5.7-13.8-13.9S358.9 32.7 367 32.7z"/><path style="fill:#FFFFFF;" d="M402.1 49.1h-10.4v11.3H385V33h6.7v10.7h10.4V33h6.7v27.4h-6.7V49.1z"/><path style="fill:#FFFFFF;" d="M448.3 33v27.4h-6.7l-11.2-16.9v16.9h-6.7V33h6.7l11.2 17V33H448.3z"/><path style="fill:#FFFFFF;" d="M470.9 38.4h-10.1v5.5h8.9V49h-8.9v6h10.1v5.3h-16.8V33h16.8v5.4z"/><path style="fill:#FFFFFF;" d="M487 50.6h-4.1v9.8h-6.7V33H487c6.7.0 10.1 3.8 10.1 8.8C497 46.4 494 50.6 487 50.6zm-.5-5.3c2.7.0 3.8-1.3 3.8-3.4s-1.1-3.4-3.8-3.4h-3.6v6.9H486.5z"/><path style="fill:#FFFFFF;" d="M518.5 55.6h-10.2l-1.6 4.8h-7l9.9-27.4h7.7l9.9 27.4h-7.1L518.5 55.6zM513.4 40.4l-3.4 10h6.7L513.4 40.4z"/><path style="fill:#FFFFFF;" d="M537.9 33v22.2h8.7v5.1h-15.4V33H537.9z"/></g></g><g style="display:inline;"><g><path style="fill:#CACACB;" d="M226.9 83.1c2.8.0 4.7 1.4 5.3 3.8h-2.6c-.4-1.1-1.3-1.8-2.8-1.8-1.9.0-3.2 1.4-3.2 3.9s1.3 4 3.2 4c1.4.0 2.3-.6 2.8-1.8h2.6c-.7 2.3-2.5 3.8-5.3 3.8-3.3.0-5.7-2.4-5.7-6C221.2 85.5 223.6 83.1 226.9 83.1z"/><path style="fill:#CACACB;" d="M237.3 94.9h-2.4V83.3h2.4V85c.7-1.2 1.8-1.9 3.5-1.9v2.5h-.6c-1.8.0-2.9.7-2.9 3.2V94.9z"/><path style="fill:#CACACB;" d="M248.2 95.1c-3.3.0-5.8-2.4-5.8-6s2.4-6 5.8-6c3.3.0 5.6 2.3 5.6 5.7.0.4.0.8-.1 1.2h-8.8c.2 1.9 1.5 3.1 3.3 3.1 1.5.0 2.3-.7 2.7-1.6h2.6C252.9 93.5 251 95.1 248.2 95.1zM244.9 88.1h6.4c0-1.8-1.4-2.9-3.2-2.9C246.5 85.2 245.2 86.3 244.9 88.1z"/><path style="fill:#CACACB;" d="M261.1 83.1c2 0 3.3.9 4 1.9v-1.7h2.4v11.6h-2.4v-1.7c-.7 1-2.1 1.9-4.1 1.9-3 0-5.4-2.5-5.4-6S258.1 83.1 261.1 83.1zM261.6 85.2c-1.8.0-3.5 1.3-3.5 3.8s1.7 3.9 3.5 3.9 3.5-1.4 3.5-3.9C265.1 86.6 263.4 85.2 261.6 85.2z"/><path style="fill:#CACACB;" d="M271.3 85.3H270v-2h1.4v-2.9h2.4v2.9h2.8v2h-2.8v6.4c0 .9.3 1.2 1.3 1.2h1.5v2h-1.9c-2.1.0-3.3-.9-3.3-3.2V85.3z"/><path style="fill:#CACACB;" d="M278.7 80.3c0-.9.7-1.5 1.5-1.5s1.5.7 1.5 1.5c0 .9-.7 1.5-1.5 1.5S278.7 81.1 278.7 80.3zM279.1 83.3h2.4v11.6h-2.4V83.3z"/><path style="fill:#CACACB;" d="M286.1 83.3l3.3 9.4 3.3-9.4h2.5l-4.4 11.6h-2.9l-4.4-11.6H286.1z"/><path style="fill:#CACACB;" d="M296.9 80.3c0-.9.7-1.5 1.5-1.5s1.5.7 1.5 1.5c0 .9-.7 1.5-1.5 1.5C297.6 81.8 296.9 81.1 296.9 80.3zM297.2 83.3h2.4v11.6h-2.4V83.3z"/><path style="fill:#CACACB;" d="M303.4 85.3H302v-2h1.4v-2.9h2.4v2.9h2.8v2h-2.8v6.4c0 .9.3 1.2 1.3 1.2h1.5v2h-1.9c-2.1.0-3.3-.9-3.3-3.2V85.3z"/><path style="fill:#CACACB;" d="M319.1 83.3h2.5l-7.1 17H312l2.4-5.6-4.6-11.4h2.7l3.3 8.8L319.1 83.3z"/><path style="fill:#CACACB;" d="M335.8 83.1c3.1.0 5.4 2.4 5.4 5.9s-2.4 6-5.4 6c-1.9.0-3.3-.9-4-1.9v1.7h-2.4V79.4h2.4v5.7C332.5 84 334 83.1 335.8 83.1zM335.3 85.2c-1.8.0-3.5 1.4-3.5 3.9s1.7 3.9 3.5 3.9 3.5-1.4 3.5-3.9C338.8 86.6 337.1 85.2 335.3 85.2z"/><path style="fill:#CACACB;" d="M348.9 95.1c-3.3.0-5.8-2.4-5.8-6s2.4-6 5.8-6c3.3.0 5.6 2.3 5.6 5.7.0.4.0.8-.1 1.2h-8.8c.2 1.9 1.5 3.1 3.3 3.1 1.5.0 2.3-.7 2.7-1.6h2.6C353.5 93.5 351.7 95.1 348.9 95.1zM345.6 88.1h6.4c0-1.8-1.4-2.9-3.2-2.9C347.1 85.2 345.8 86.3 345.6 88.1z"/><path style="fill:#CACACB;" d="M365 83.3h2.5l-7.1 17h-2.5l2.4-5.6-4.6-11.4h2.7l3.3 8.8L365 83.3z"/><path style="fill:#CACACB;" d="M374.6 95.1c-3.3.0-5.8-2.4-5.8-6s2.6-6 5.9-6c3.3.0 5.9 2.3 5.9 6C380.6 92.7 377.9 95.1 374.6 95.1zM374.6 93c1.8.0 3.5-1.3 3.5-3.9.0-2.6-1.7-3.9-3.5-3.9s-3.4 1.3-3.4 3.9C371.3 91.7 372.8 93 374.6 93z"/><path style="fill:#CACACB;" d="M391.5 88.4c0-2.1-1.2-3.2-2.9-3.2-1.8.0-2.9 1.1-2.9 3.2v6.5h-2.4V83.3h2.4v1.3c.8-.9 2.1-1.5 3.4-1.5 2.7.0 4.7 1.7 4.7 4.9v6.8h-2.4V88.4z"/><path style="fill:#CACACB;" d="M401.9 83.1c1.5.0 3.1.7 4 1.8v-5.6h2.4v15.5h-2.4v-1.7c-.7 1-2.1 1.9-4 1.9-3 0-5.5-2.5-5.5-6S398.8 83.1 401.9 83.1zM402.3 85.2c-1.8.0-3.5 1.3-3.5 3.8s1.7 3.9 3.5 3.9 3.5-1.4 3.5-3.9C405.8 86.6 404.1 85.2 402.3 85.2z"/><path style="fill:#CACACB;" d="M417.1 80.3c0-.9.7-1.5 1.5-1.5s1.5.7 1.5 1.5c0 .9-.7 1.5-1.5 1.5S417.1 81.1 417.1 80.3zM417.4 83.3h2.4v11.6h-2.4V83.3z"/><path style="fill:#CACACB;" d="M439.6 88.4c0-2.1-1.2-3.2-2.9-3.2-1.8.0-2.9 1.1-2.9 3.2v6.5h-2.4v-6.5c0-2.1-1.2-3.2-2.9-3.2-1.8.0-2.9 1.1-2.9 3.2v6.5h-2.4V83.3h2.4v1.3c.8-.9 2-1.5 3.4-1.5 1.8.0 3.4.8 4.2 2.3.7-1.4 2.4-2.3 4-2.3 2.7.0 4.8 1.7 4.8 4.9v6.8h-2.4V88.4z"/><path style="fill:#CACACB;" d="M450 83.1c2 0 3.3.9 4 1.9v-1.7h2.4v11.6H454v-1.7c-.7 1-2.1 1.9-4.1 1.9-3 0-5.4-2.5-5.4-6S446.9 83.1 450 83.1zM450.5 85.2c-1.8.0-3.5 1.3-3.5 3.8s1.7 3.9 3.5 3.9 3.5-1.4 3.5-3.9C454 86.6 452.3 85.2 450.5 85.2z"/><path style="fill:#CACACB;" d="M464.5 83.1c1.9.0 3.3.9 4 1.9v-1.7h2.4v11.8c0 3.1-2 5.5-5.6 5.5-3.1.0-5.4-1.5-5.7-4.1h2.4c.4 1.2 1.6 2 3.3 2 1.8.0 3.2-1.1 3.2-3.4v-1.9c-.7 1-2.1 1.9-4 1.9-3 0-5.5-2.5-5.5-6S461.5 83.1 464.5 83.1zM465 85.2c-1.8.0-3.5 1.3-3.5 3.8s1.7 3.9 3.5 3.9 3.5-1.4 3.5-3.9C468.5 86.6 466.8 85.2 465 85.2z"/><path style="fill:#CACACB;" d="M474 80.3c0-.9.7-1.5 1.5-1.5s1.5.7 1.5 1.5c0 .9-.7 1.5-1.5 1.5S474 81.1 474 80.3zM474.4 83.3h2.4v11.6h-2.4V83.3z"/><path style="fill:#CACACB;" d="M488.4 88.4c0-2.1-1.2-3.2-2.9-3.2-1.8.0-2.9 1.1-2.9 3.2v6.5h-2.4V83.3h2.4v1.3c.8-.9 2.1-1.5 3.4-1.5 2.7.0 4.7 1.7 4.7 4.9v6.8h-2.4V88.4z"/><path style="fill:#CACACB;" d="M498.7 83.1c2 0 3.3.9 4 1.9v-1.7h2.4v11.6h-2.4v-1.7c-.7 1-2.1 1.9-4.1 1.9-3 0-5.4-2.5-5.4-6s2.5-6 5.5-6zM499.2 85.2c-1.8.0-3.5 1.3-3.5 3.8s1.7 3.9 3.5 3.9 3.5-1.4 3.5-3.9C502.7 86.6 501 85.2 499.2 85.2z"/><path style="fill:#CACACB;" d="M509 85.3h-1.4v-2h1.4v-2.9h2.4v2.9h2.8v2h-2.8v6.4c0 .9.3 1.2 1.3 1.2h1.5v2h-1.9c-2.1.0-3.3-.9-3.3-3.2V85.3z"/><path style="fill:#CACACB;" d="M516.4 80.3c0-.9.7-1.5 1.5-1.5s1.5.7 1.5 1.5c0 .9-.7 1.5-1.5 1.5C517 81.8 516.4 81.1 516.4 80.3zM516.7 83.3h2.4v11.6h-2.4V83.3z"/><path style="fill:#CACACB;" d="M527.5 95.1c-3.3.0-5.8-2.4-5.8-6s2.6-6 5.9-6 5.9 2.3 5.9 6C533.5 92.7 530.8 95.1 527.5 95.1zM527.5 93c1.8.0 3.5-1.3 3.5-3.9.0-2.6-1.7-3.9-3.5-3.9s-3.4 1.3-3.4 3.9S525.7 93 527.5 93z"/><path style="fill:#CACACB;" d="M544.4 88.4c0-2.1-1.2-3.2-2.9-3.2-1.8.0-2.9 1.1-2.9 3.2v6.5h-2.4V83.3h2.4v1.3c.8-.9 2.1-1.5 3.4-1.5 2.7.0 4.7 1.7 4.7 4.9v6.8h-2.4V88.4z"/></g></g></g></svg>